# xmcd
#
# Track frame offsets:
#	150
#	14518
#	32780
#	47704
#	68167
#	85942
#	105889
#	126115
#	143905
#	160336
#	174327
#
# Disc length: 2511 seconds
#
# Revision: 0
# Processed by: cddbd v1.5.1PL0 Copyright (c) Steve Scherf et al.
# Submitted via: dBpowerAMP V4.0
#
DISCID=8a09cd0b
DTITLE=Mike Amabile - Places I Can't Go
DYEAR=2005
DGENRE=Texas Country
TTITLE0=Ain't Bettin on You
TTITLE1=It Don't Happen That Way
TTITLE2=That's a Lie (and That's the Truth)
TTITLE3=Evil Women
TTITLE4=I Can Give You Love
TTITLE5=Places I Can't Go
TTITLE6=Maybe I Could Live
TTITLE7=When It Fades Away
TTITLE8=Never Stop Loving You
TTITLE9=Redemption Man
TTITLE10=False Advertisement (the Wonder Bra Song)
EXTD=
EXTT0=
EXTT1=
EXTT2=
EXTT3=
EXTT4=
EXTT5=
EXTT6=
EXTT7=
EXTT8=
EXTT9=
EXTT10=
PLAYORDER=
